G04*
G04 #@! TF.GenerationSoftware,Altium Limited,Altium Designer,21.9.2 (33)*
G04*
G04 Layer_Color=16711935*
%FSLAX25Y25*%
%MOIN*%
G70*
G04*
G04 #@! TF.SameCoordinates,E2E37F34-45BF-43D2-A38E-C68E023C1027*
G04*
G04*
G04 #@! TF.FilePolarity,Negative*
G04*
G01*
G75*
G04:AMPARAMS|DCode=21|XSize=43.31mil|YSize=39.37mil|CornerRadius=6.4mil|HoleSize=0mil|Usage=FLASHONLY|Rotation=180.000|XOffset=0mil|YOffset=0mil|HoleType=Round|Shape=RoundedRectangle|*
%AMROUNDEDRECTD21*
21,1,0.04331,0.02657,0,0,180.0*
21,1,0.03051,0.03937,0,0,180.0*
1,1,0.01280,-0.01526,0.01329*
1,1,0.01280,0.01526,0.01329*
1,1,0.01280,0.01526,-0.01329*
1,1,0.01280,-0.01526,-0.01329*
%
%ADD21ROUNDEDRECTD21*%
G04:AMPARAMS|DCode=22|XSize=3.94mil|YSize=3.94mil|CornerRadius=0mil|HoleSize=0mil|Usage=FLASHONLY|Rotation=0.000|XOffset=0mil|YOffset=0mil|HoleType=Round|Shape=RoundedRectangle|*
%AMROUNDEDRECTD22*
21,1,0.00394,0.00394,0,0,0.0*
21,1,0.00394,0.00394,0,0,0.0*
1,1,0.00000,0.00197,-0.00197*
1,1,0.00000,-0.00197,-0.00197*
1,1,0.00000,-0.00197,0.00197*
1,1,0.00000,0.00197,0.00197*
%
%ADD22ROUNDEDRECTD22*%
G04:AMPARAMS|DCode=23|XSize=240.16mil|YSize=240.16mil|CornerRadius=13.78mil|HoleSize=0mil|Usage=FLASHONLY|Rotation=180.000|XOffset=0mil|YOffset=0mil|HoleType=Round|Shape=RoundedRectangle|*
%AMROUNDEDRECTD23*
21,1,0.24016,0.21260,0,0,180.0*
21,1,0.21260,0.24016,0,0,180.0*
1,1,0.02756,-0.10630,0.10630*
1,1,0.02756,0.10630,0.10630*
1,1,0.02756,0.10630,-0.10630*
1,1,0.02756,-0.10630,-0.10630*
%
%ADD23ROUNDEDRECTD23*%
%ADD24C,0.07480*%
%ADD34R,0.03937X0.02362*%
G04:AMPARAMS|DCode=37|XSize=55.12mil|YSize=35.43mil|CornerRadius=5.91mil|HoleSize=0mil|Usage=FLASHONLY|Rotation=90.000|XOffset=0mil|YOffset=0mil|HoleType=Round|Shape=RoundedRectangle|*
%AMROUNDEDRECTD37*
21,1,0.05512,0.02362,0,0,90.0*
21,1,0.04331,0.03543,0,0,90.0*
1,1,0.01181,0.01181,0.02165*
1,1,0.01181,0.01181,-0.02165*
1,1,0.01181,-0.01181,-0.02165*
1,1,0.01181,-0.01181,0.02165*
%
%ADD37ROUNDEDRECTD37*%
%ADD38R,0.04331X0.02756*%
D21*
X50787Y27756D02*
D03*
Y21063D02*
D03*
X45276Y27756D02*
D03*
Y21063D02*
D03*
X72441Y24213D02*
D03*
Y17520D02*
D03*
Y35630D02*
D03*
Y28937D02*
D03*
D22*
X55905Y6693D02*
D03*
X44094D02*
D03*
D23*
X12598Y40157D02*
D03*
X87402D02*
D03*
X12598Y12598D02*
D03*
X87402Y12598D02*
D03*
D24*
X50000Y34252D02*
D03*
X69685Y48425D02*
D03*
X30315D02*
D03*
D34*
X54823Y16732D02*
D03*
Y11614D02*
D03*
X45965Y14173D02*
D03*
D37*
X66929Y35827D02*
D03*
X59055D02*
D03*
X59055Y42126D02*
D03*
X51181D02*
D03*
X67716Y16535D02*
D03*
X59842D02*
D03*
D38*
X67224Y26378D02*
D03*
Y30118D02*
D03*
Y22638D02*
D03*
X56398Y30118D02*
D03*
Y22638D02*
D03*
M02*
