G04*
G04 #@! TF.GenerationSoftware,Altium Limited,Altium Designer,21.9.2 (33)*
G04*
G04 Layer_Color=32896*
%FSLAX25Y25*%
%MOIN*%
G70*
G04*
G04 #@! TF.SameCoordinates,E2E37F34-45BF-43D2-A38E-C68E023C1027*
G04*
G04*
G04 #@! TF.FilePolarity,Positive*
G04*
G01*
G75*
%ADD10C,0.00787*%
%ADD11C,0.00500*%
%ADD12C,0.01000*%
%ADD13C,0.00591*%
%ADD39C,0.00984*%
D10*
X64961Y48425D02*
G03*
X64961Y48425I-3150J0D01*
G01*
X45276Y34252D02*
G03*
X45276Y34252I-3150J0D01*
G01*
X41339Y48425D02*
G03*
X41339Y48425I-3150J0D01*
G01*
X47736Y18504D02*
X51673D01*
X47736Y16732D02*
Y18504D01*
Y9843D02*
X51673D01*
X47736D02*
Y11614D01*
X63779Y20276D02*
Y32480D01*
X59842Y20276D02*
Y32480D01*
Y20276D02*
X63779D01*
X59842Y32480D02*
X63779D01*
D11*
X61492Y38327D02*
X64492D01*
X61492Y33327D02*
X64492D01*
X53618Y44626D02*
X56618D01*
X53618Y39626D02*
X56618D01*
X52387Y23810D02*
Y25010D01*
X49187Y23810D02*
Y25010D01*
X43401Y23709D02*
X47150D01*
X43401Y25109D02*
X47150D01*
X62279Y19035D02*
X65280D01*
X62279Y14035D02*
X65280D01*
X70566Y21566D02*
X74316D01*
X70566Y20166D02*
X74316D01*
X70566Y31583D02*
X74316D01*
X70566Y32983D02*
X74316D01*
D12*
X61811Y46850D02*
Y50000D01*
X60236Y48425D02*
X63386D01*
X40551Y34252D02*
X43701D01*
X38189Y46850D02*
Y50000D01*
X36614Y48425D02*
X39764D01*
D13*
X67585Y39764D02*
Y42913D01*
X66010D01*
X65485Y42388D01*
Y41339D01*
X66010Y40814D01*
X67585D01*
X66535D02*
X65485Y39764D01*
X62337Y42913D02*
X64436D01*
Y41339D01*
X63386Y41863D01*
X62862D01*
X62337Y41339D01*
Y40289D01*
X62862Y39764D01*
X63911D01*
X64436Y40289D01*
X48293Y40552D02*
Y43700D01*
X46719D01*
X46194Y43176D01*
Y42126D01*
X46719Y41601D01*
X48293D01*
X47244D02*
X46194Y40552D01*
X43570D02*
Y43700D01*
X45145Y42126D01*
X43045D01*
X31890Y22179D02*
X35039D01*
Y23754D01*
X34514Y24278D01*
X33465D01*
X32940Y23754D01*
Y22179D01*
Y23229D02*
X31890Y24278D01*
Y27427D02*
Y25328D01*
X33989Y27427D01*
X34514D01*
X35039Y26902D01*
Y25853D01*
X34514Y25328D01*
X29790Y24803D02*
X30314Y24278D01*
Y23229D01*
X29790Y22704D01*
X27691D01*
X27166Y23229D01*
Y24278D01*
X27691Y24803D01*
X27166Y25853D02*
Y26902D01*
Y26377D01*
X30314D01*
X29790Y25853D01*
X52099Y7874D02*
Y5250D01*
X51574Y4725D01*
X50525D01*
X50000Y5250D01*
Y7874D01*
X48950Y4725D02*
X47901D01*
X48426D01*
Y7874D01*
X48950Y7349D01*
X66797Y9843D02*
Y12992D01*
X65223D01*
X64698Y12467D01*
Y11417D01*
X65223Y10893D01*
X66797D01*
X65747D02*
X64698Y9843D01*
X63648Y12467D02*
X63124Y12992D01*
X62074D01*
X61549Y12467D01*
Y11942D01*
X62074Y11417D01*
X62599D01*
X62074D01*
X61549Y10893D01*
Y10368D01*
X62074Y9843D01*
X63124D01*
X63648Y10368D01*
X73491Y11483D02*
X74015Y10958D01*
Y9909D01*
X73491Y9384D01*
X71391D01*
X70867Y9909D01*
Y10958D01*
X71391Y11483D01*
X70867Y14632D02*
Y12533D01*
X72966Y14632D01*
X73491D01*
X74015Y14107D01*
Y13057D01*
X73491Y12533D01*
X41600Y26377D02*
Y23754D01*
X41075Y23229D01*
X40026D01*
X39501Y23754D01*
Y26377D01*
X36353Y23229D02*
X38452D01*
X36353Y25328D01*
Y25853D01*
X36877Y26377D01*
X37927D01*
X38452Y25853D01*
X73491Y40420D02*
X74015Y39895D01*
Y38846D01*
X73491Y38321D01*
X71391D01*
X70867Y38846D01*
Y39895D01*
X71391Y40420D01*
X73491Y41470D02*
X74015Y41994D01*
Y43044D01*
X73491Y43569D01*
X72966D01*
X72441Y43044D01*
Y42519D01*
Y43044D01*
X71916Y43569D01*
X71391D01*
X70867Y43044D01*
Y41994D01*
X71391Y41470D01*
D39*
X55315Y19882D02*
G03*
X55315Y19882I-492J0D01*
G01*
X67716Y33465D02*
G03*
X67716Y33465I-492J0D01*
G01*
M02*
