G04*
G04 #@! TF.GenerationSoftware,Altium Limited,Altium Designer,21.9.2 (33)*
G04*
G04 Layer_Physical_Order=3*
G04 Layer_Color=16440176*
%FSLAX25Y25*%
%MOIN*%
G70*
G04*
G04 #@! TF.SameCoordinates,E2E37F34-45BF-43D2-A38E-C68E023C1027*
G04*
G04*
G04 #@! TF.FilePolarity,Positive*
G04*
G01*
G75*
G04:AMPARAMS|DCode=27|XSize=236.22mil|YSize=236.22mil|CornerRadius=11.81mil|HoleSize=0mil|Usage=FLASHONLY|Rotation=180.000|XOffset=0mil|YOffset=0mil|HoleType=Round|Shape=RoundedRectangle|*
%AMROUNDEDRECTD27*
21,1,0.23622,0.21260,0,0,180.0*
21,1,0.21260,0.23622,0,0,180.0*
1,1,0.02362,-0.10630,0.10630*
1,1,0.02362,0.10630,0.10630*
1,1,0.02362,0.10630,-0.10630*
1,1,0.02362,-0.10630,-0.10630*
%
%ADD27ROUNDEDRECTD27*%
%ADD28C,0.07087*%
%ADD29C,0.01772*%
G36*
X99197Y803D02*
X803D01*
Y51953D01*
X99197D01*
Y803D01*
D02*
G37*
%LPC*%
G36*
X70074Y51378D02*
X69296D01*
X68545Y51177D01*
X67872Y50788D01*
X67322Y50238D01*
X66934Y49565D01*
X66732Y48814D01*
Y48037D01*
X66934Y47286D01*
X67322Y46612D01*
X67872Y46062D01*
X68545Y45674D01*
X69296Y45472D01*
X70074D01*
X70825Y45674D01*
X71498Y46062D01*
X72048Y46612D01*
X72437Y47286D01*
X72638Y48037D01*
Y48814D01*
X72437Y49565D01*
X72048Y50238D01*
X71498Y50788D01*
X70825Y51177D01*
X70074Y51378D01*
D02*
G37*
G36*
X30704D02*
X29926D01*
X29175Y51177D01*
X28502Y50788D01*
X27952Y50238D01*
X27563Y49565D01*
X27362Y48814D01*
Y48037D01*
X27563Y47286D01*
X27952Y46612D01*
X28502Y46062D01*
X29175Y45674D01*
X29926Y45472D01*
X30704D01*
X31455Y45674D01*
X32128Y46062D01*
X32678Y46612D01*
X33066Y47286D01*
X33268Y48037D01*
Y48814D01*
X33066Y49565D01*
X32678Y50238D01*
X32128Y50788D01*
X31455Y51177D01*
X30704Y51378D01*
D02*
G37*
G36*
X88410Y50394D02*
X86393D01*
X84416Y50000D01*
X82553Y49229D01*
X80876Y48109D01*
X79451Y46683D01*
X78330Y45006D01*
X77559Y43143D01*
X77165Y41166D01*
Y39149D01*
X77559Y37172D01*
X78330Y35309D01*
X79451Y33632D01*
X80876Y32206D01*
X82553Y31086D01*
X84416Y30315D01*
X86393Y29921D01*
X88410D01*
X90387Y30315D01*
X92250Y31086D01*
X93927Y32206D01*
X95353Y33632D01*
X96473Y35309D01*
X97244Y37172D01*
X97638Y39149D01*
Y41166D01*
X97244Y43143D01*
X96473Y45006D01*
X95353Y46683D01*
X93927Y48109D01*
X92250Y49229D01*
X90387Y50000D01*
X88410Y50394D01*
D02*
G37*
G36*
X45511Y28937D02*
X45041D01*
X44607Y28757D01*
X44274Y28425D01*
X44094Y27991D01*
Y27521D01*
X44274Y27087D01*
X44607Y26755D01*
X45041Y26575D01*
X45511D01*
X45945Y26755D01*
X46277Y27087D01*
X46457Y27521D01*
Y27991D01*
X46277Y28425D01*
X45945Y28757D01*
X45511Y28937D01*
D02*
G37*
G36*
X56242Y9252D02*
X55569D01*
X54918Y9078D01*
X54334Y8741D01*
X53858Y8264D01*
X53521Y7681D01*
X53347Y7030D01*
Y6356D01*
X53521Y5705D01*
X53858Y5122D01*
X54334Y4645D01*
X54918Y4308D01*
X55569Y4134D01*
X56242D01*
X56893Y4308D01*
X57477Y4645D01*
X57953Y5122D01*
X58290Y5705D01*
X58465Y6356D01*
Y7030D01*
X58290Y7681D01*
X57953Y8264D01*
X57477Y8741D01*
X56893Y9078D01*
X56242Y9252D01*
D02*
G37*
G36*
X44431D02*
X43758D01*
X43107Y9078D01*
X42523Y8741D01*
X42047Y8264D01*
X41710Y7681D01*
X41535Y7030D01*
Y6356D01*
X41710Y5705D01*
X42047Y5122D01*
X42523Y4645D01*
X43107Y4308D01*
X43758Y4134D01*
X44431D01*
X45082Y4308D01*
X45666Y4645D01*
X46142Y5122D01*
X46479Y5705D01*
X46654Y6356D01*
Y7030D01*
X46479Y7681D01*
X46142Y8264D01*
X45666Y8741D01*
X45082Y9078D01*
X44431Y9252D01*
D02*
G37*
G36*
X88238Y23228D02*
X86565D01*
X84912Y22967D01*
X83321Y22450D01*
X81830Y21690D01*
X80477Y20707D01*
X79294Y19523D01*
X78310Y18170D01*
X77550Y16679D01*
X77033Y15088D01*
X76772Y13435D01*
Y11762D01*
X77033Y10109D01*
X77550Y8518D01*
X78310Y7027D01*
X79294Y5674D01*
X80477Y4490D01*
X81830Y3507D01*
X83321Y2747D01*
X84912Y2230D01*
X86565Y1969D01*
X88238D01*
X89891Y2230D01*
X91482Y2747D01*
X92973Y3507D01*
X94327Y4490D01*
X95510Y5674D01*
X96493Y7027D01*
X97253Y8518D01*
X97770Y10109D01*
X98032Y11762D01*
Y13435D01*
X97770Y15088D01*
X97253Y16679D01*
X96493Y18170D01*
X95510Y19523D01*
X94327Y20707D01*
X92973Y21690D01*
X91482Y22450D01*
X89891Y22967D01*
X88238Y23228D01*
D02*
G37*
%LPD*%
D27*
X12598Y40157D02*
D03*
Y12598D02*
D03*
D28*
X50000Y34252D02*
D03*
D29*
X47146Y21925D02*
D03*
X72441Y28937D02*
D03*
X51181Y42126D02*
D03*
X55709Y11614D02*
D03*
X64370Y10492D02*
D03*
Y2894D02*
D03*
X35630D02*
D03*
Y10492D02*
D03*
X30118Y17520D02*
D03*
X72441Y24213D02*
D03*
X67224Y26378D02*
D03*
M02*
