G04*
G04 #@! TF.GenerationSoftware,Altium Limited,Altium Designer,21.9.2 (33)*
G04*
G04 Layer_Color=65535*
%FSLAX25Y25*%
%MOIN*%
G70*
G04*
G04 #@! TF.SameCoordinates,E2E37F34-45BF-43D2-A38E-C68E023C1027*
G04*
G04*
G04 #@! TF.FilePolarity,Positive*
G04*
G01*
G75*
%ADD10C,0.00787*%
%ADD11C,0.00500*%
%ADD12C,0.01000*%
%ADD13C,0.00591*%
G36*
X65532Y23611D02*
X65583D01*
X65634Y23596D01*
X65765Y23575D01*
X65904Y23531D01*
X66049Y23465D01*
X66115Y23429D01*
X66181Y23378D01*
X66239Y23327D01*
X66297Y23261D01*
Y23254D01*
X66312Y23246D01*
X66326Y23225D01*
X66341Y23196D01*
X66363Y23159D01*
X66385Y23115D01*
X66407Y23064D01*
X66436Y23006D01*
X66465Y22940D01*
X66487Y22867D01*
X66531Y22700D01*
X66560Y22503D01*
X66574Y22277D01*
Y19988D01*
X65977D01*
Y21993D01*
Y22000D01*
Y22029D01*
Y22073D01*
Y22131D01*
X65969Y22197D01*
Y22270D01*
X65955Y22430D01*
Y22437D01*
X65947Y22467D01*
Y22503D01*
X65933Y22554D01*
X65911Y22663D01*
X65889Y22722D01*
X65867Y22773D01*
Y22780D01*
X65853Y22794D01*
X65838Y22816D01*
X65816Y22846D01*
X65751Y22911D01*
X65656Y22977D01*
X65649D01*
X65634Y22991D01*
X65597Y22999D01*
X65561Y23013D01*
X65503Y23028D01*
X65437Y23035D01*
X65357Y23050D01*
X65218D01*
X65167Y23042D01*
X65109Y23035D01*
X65029Y23020D01*
X64949Y22991D01*
X64861Y22962D01*
X64766Y22919D01*
X64759Y22911D01*
X64723Y22897D01*
X64672Y22867D01*
X64613Y22831D01*
X64533Y22787D01*
X64453Y22736D01*
X64358Y22671D01*
X64263Y22605D01*
Y22590D01*
X64271Y22554D01*
X64278Y22503D01*
X64285Y22430D01*
Y22423D01*
Y22415D01*
X64293Y22372D01*
Y22313D01*
Y22241D01*
Y19988D01*
X63695D01*
Y21993D01*
Y22000D01*
Y22029D01*
Y22080D01*
Y22138D01*
X63687Y22204D01*
Y22277D01*
X63673Y22437D01*
Y22445D01*
X63666Y22474D01*
Y22510D01*
X63651Y22561D01*
X63629Y22671D01*
X63607Y22722D01*
X63586Y22773D01*
Y22780D01*
X63571Y22794D01*
X63556Y22824D01*
X63534Y22853D01*
X63469Y22919D01*
X63374Y22977D01*
X63367D01*
X63352Y22991D01*
X63316Y22999D01*
X63279Y23013D01*
X63221Y23028D01*
X63155Y23035D01*
X63075Y23050D01*
X62937D01*
X62893Y23042D01*
X62827Y23035D01*
X62754Y23020D01*
X62674Y22999D01*
X62587Y22970D01*
X62492Y22926D01*
X62485Y22919D01*
X62448Y22904D01*
X62405Y22882D01*
X62339Y22846D01*
X62266Y22802D01*
X62186Y22751D01*
X62098Y22685D01*
X62011Y22620D01*
Y19988D01*
X61413D01*
Y23524D01*
X62011D01*
Y23130D01*
X62025Y23137D01*
X62062Y23166D01*
X62113Y23210D01*
X62186Y23261D01*
X62266Y23319D01*
X62361Y23378D01*
X62463Y23436D01*
X62565Y23487D01*
X62579Y23494D01*
X62616Y23509D01*
X62667Y23531D01*
X62740Y23553D01*
X62835Y23575D01*
X62929Y23596D01*
X63039Y23611D01*
X63155Y23618D01*
X63214D01*
X63279Y23611D01*
X63367Y23596D01*
X63462Y23582D01*
X63564Y23553D01*
X63666Y23516D01*
X63760Y23465D01*
X63775Y23458D01*
X63804Y23436D01*
X63848Y23400D01*
X63906Y23356D01*
X63964Y23298D01*
X64030Y23225D01*
X64088Y23137D01*
X64139Y23042D01*
X64147Y23050D01*
X64154Y23057D01*
X64198Y23093D01*
X64271Y23144D01*
X64358Y23210D01*
X64460Y23283D01*
X64570Y23356D01*
X64686Y23422D01*
X64796Y23480D01*
X64810Y23487D01*
X64847Y23502D01*
X64905Y23524D01*
X64985Y23553D01*
X65087Y23575D01*
X65189Y23596D01*
X65313Y23611D01*
X65437Y23618D01*
X65496D01*
X65532Y23611D01*
D02*
G37*
G36*
X42867D02*
X42918D01*
X42969Y23596D01*
X43101Y23575D01*
X43239Y23531D01*
X43385Y23465D01*
X43450Y23429D01*
X43516Y23378D01*
X43574Y23327D01*
X43633Y23261D01*
Y23254D01*
X43647Y23246D01*
X43662Y23225D01*
X43676Y23196D01*
X43698Y23159D01*
X43720Y23115D01*
X43742Y23064D01*
X43771Y23006D01*
X43800Y22940D01*
X43822Y22867D01*
X43866Y22700D01*
X43895Y22503D01*
X43910Y22277D01*
Y19988D01*
X43312D01*
Y21993D01*
Y22000D01*
Y22029D01*
Y22073D01*
Y22131D01*
X43305Y22197D01*
Y22270D01*
X43290Y22430D01*
Y22437D01*
X43283Y22467D01*
Y22503D01*
X43268Y22554D01*
X43246Y22663D01*
X43224Y22722D01*
X43203Y22773D01*
Y22780D01*
X43188Y22794D01*
X43174Y22816D01*
X43152Y22846D01*
X43086Y22911D01*
X42991Y22977D01*
X42984D01*
X42969Y22991D01*
X42933Y22999D01*
X42896Y23013D01*
X42838Y23028D01*
X42772Y23035D01*
X42692Y23050D01*
X42554D01*
X42503Y23042D01*
X42445Y23035D01*
X42364Y23020D01*
X42284Y22991D01*
X42197Y22962D01*
X42102Y22919D01*
X42094Y22911D01*
X42058Y22897D01*
X42007Y22867D01*
X41949Y22831D01*
X41869Y22787D01*
X41788Y22736D01*
X41694Y22671D01*
X41599Y22605D01*
Y22590D01*
X41606Y22554D01*
X41613Y22503D01*
X41621Y22430D01*
Y22423D01*
Y22415D01*
X41628Y22372D01*
Y22313D01*
Y22241D01*
Y19988D01*
X41030D01*
Y21993D01*
Y22000D01*
Y22029D01*
Y22080D01*
Y22138D01*
X41023Y22204D01*
Y22277D01*
X41008Y22437D01*
Y22445D01*
X41001Y22474D01*
Y22510D01*
X40986Y22561D01*
X40965Y22671D01*
X40943Y22722D01*
X40921Y22773D01*
Y22780D01*
X40906Y22794D01*
X40892Y22824D01*
X40870Y22853D01*
X40804Y22919D01*
X40709Y22977D01*
X40702D01*
X40688Y22991D01*
X40651Y22999D01*
X40615Y23013D01*
X40556Y23028D01*
X40491Y23035D01*
X40411Y23050D01*
X40272D01*
X40228Y23042D01*
X40163Y23035D01*
X40090Y23020D01*
X40010Y22999D01*
X39922Y22970D01*
X39827Y22926D01*
X39820Y22919D01*
X39784Y22904D01*
X39740Y22882D01*
X39674Y22846D01*
X39601Y22802D01*
X39521Y22751D01*
X39434Y22685D01*
X39346Y22620D01*
Y19988D01*
X38748D01*
Y23524D01*
X39346D01*
Y23130D01*
X39361Y23137D01*
X39397Y23166D01*
X39448Y23210D01*
X39521Y23261D01*
X39601Y23319D01*
X39696Y23378D01*
X39798Y23436D01*
X39900Y23487D01*
X39915Y23494D01*
X39951Y23509D01*
X40002Y23531D01*
X40075Y23553D01*
X40170Y23575D01*
X40265Y23596D01*
X40374Y23611D01*
X40491Y23618D01*
X40549D01*
X40615Y23611D01*
X40702Y23596D01*
X40797Y23582D01*
X40899Y23553D01*
X41001Y23516D01*
X41096Y23465D01*
X41110Y23458D01*
X41140Y23436D01*
X41183Y23400D01*
X41242Y23356D01*
X41300Y23298D01*
X41366Y23225D01*
X41424Y23137D01*
X41475Y23042D01*
X41482Y23050D01*
X41489Y23057D01*
X41533Y23093D01*
X41606Y23144D01*
X41694Y23210D01*
X41796Y23283D01*
X41905Y23356D01*
X42022Y23422D01*
X42131Y23480D01*
X42146Y23487D01*
X42182Y23502D01*
X42240Y23524D01*
X42320Y23553D01*
X42423Y23575D01*
X42525Y23596D01*
X42649Y23611D01*
X42772Y23618D01*
X42831D01*
X42867Y23611D01*
D02*
G37*
G36*
X69767Y19988D02*
X68929D01*
X67216Y24697D01*
X67879D01*
X69366Y20542D01*
X70846Y24697D01*
X71488D01*
X69767Y19988D01*
D02*
G37*
G36*
X47285Y24785D02*
X47365Y24777D01*
X47460Y24763D01*
X47569Y24748D01*
X47679Y24726D01*
X47803Y24697D01*
X47927Y24654D01*
X48058Y24610D01*
X48189Y24559D01*
X48313Y24493D01*
X48444Y24420D01*
X48561Y24333D01*
X48677Y24238D01*
X48685Y24231D01*
X48707Y24216D01*
X48736Y24180D01*
X48772Y24136D01*
X48816Y24085D01*
X48867Y24019D01*
X48918Y23939D01*
X48976Y23852D01*
X49035Y23757D01*
X49086Y23648D01*
X49137Y23531D01*
X49180Y23400D01*
X49217Y23268D01*
X49253Y23123D01*
X49268Y22970D01*
X49275Y22809D01*
Y22802D01*
Y22780D01*
Y22751D01*
X49268Y22707D01*
Y22649D01*
X49261Y22590D01*
X49246Y22517D01*
X49239Y22445D01*
X49195Y22270D01*
X49137Y22080D01*
X49064Y21891D01*
X49013Y21796D01*
X48954Y21701D01*
Y21694D01*
X48940Y21679D01*
X48925Y21657D01*
X48896Y21621D01*
X48867Y21577D01*
X48831Y21533D01*
X48736Y21424D01*
X48612Y21300D01*
X48473Y21169D01*
X48313Y21045D01*
X48138Y20928D01*
Y20542D01*
X49436D01*
Y19988D01*
X47613D01*
Y21205D01*
X47620Y21213D01*
X47642Y21227D01*
X47686Y21249D01*
X47730Y21285D01*
X47788Y21322D01*
X47854Y21366D01*
X47985Y21468D01*
X47992Y21475D01*
X48014Y21490D01*
X48050Y21519D01*
X48094Y21563D01*
X48145Y21606D01*
X48204Y21665D01*
X48313Y21789D01*
X48320Y21796D01*
X48335Y21818D01*
X48364Y21861D01*
X48393Y21912D01*
X48430Y21971D01*
X48473Y22044D01*
X48510Y22131D01*
X48539Y22219D01*
X48546Y22233D01*
X48553Y22262D01*
X48568Y22321D01*
X48583Y22386D01*
X48597Y22474D01*
X48612Y22576D01*
X48626Y22685D01*
Y22809D01*
Y22816D01*
Y22838D01*
Y22875D01*
X48619Y22919D01*
X48612Y22977D01*
X48605Y23035D01*
X48590Y23108D01*
X48575Y23188D01*
X48524Y23356D01*
X48451Y23531D01*
X48408Y23618D01*
X48357Y23698D01*
X48291Y23786D01*
X48218Y23859D01*
X48211Y23866D01*
X48196Y23873D01*
X48174Y23895D01*
X48145Y23917D01*
X48101Y23954D01*
X48058Y23983D01*
X48000Y24019D01*
X47934Y24056D01*
X47854Y24092D01*
X47774Y24129D01*
X47686Y24165D01*
X47591Y24194D01*
X47482Y24216D01*
X47372Y24238D01*
X47249Y24245D01*
X47125Y24252D01*
X47059D01*
X47008Y24245D01*
X46950Y24238D01*
X46884Y24231D01*
X46804Y24223D01*
X46724Y24202D01*
X46549Y24158D01*
X46367Y24085D01*
X46272Y24041D01*
X46184Y23990D01*
X46104Y23932D01*
X46024Y23859D01*
X46017Y23852D01*
X46009Y23844D01*
X45987Y23815D01*
X45958Y23786D01*
X45929Y23750D01*
X45900Y23698D01*
X45864Y23648D01*
X45827Y23582D01*
X45783Y23509D01*
X45747Y23429D01*
X45718Y23341D01*
X45689Y23254D01*
X45638Y23042D01*
X45630Y22926D01*
X45623Y22809D01*
Y22794D01*
Y22751D01*
X45630Y22693D01*
Y22612D01*
X45645Y22517D01*
X45659Y22415D01*
X45674Y22321D01*
X45703Y22219D01*
X45710Y22211D01*
X45718Y22175D01*
X45740Y22131D01*
X45761Y22073D01*
X45791Y22007D01*
X45834Y21934D01*
X45929Y21789D01*
X45936Y21781D01*
X45951Y21759D01*
X45980Y21723D01*
X46024Y21679D01*
X46068Y21628D01*
X46126Y21577D01*
X46250Y21468D01*
X46257Y21461D01*
X46286Y21446D01*
X46323Y21417D01*
X46367Y21380D01*
X46425Y21344D01*
X46490Y21300D01*
X46636Y21205D01*
Y19988D01*
X44814D01*
Y20542D01*
X46111D01*
Y20928D01*
X46104D01*
X46090Y20943D01*
X46060Y20957D01*
X46031Y20979D01*
X45987Y21009D01*
X45936Y21045D01*
X45820Y21132D01*
X45689Y21242D01*
X45550Y21373D01*
X45419Y21526D01*
X45288Y21701D01*
Y21708D01*
X45273Y21723D01*
X45258Y21752D01*
X45237Y21789D01*
X45215Y21832D01*
X45186Y21891D01*
X45164Y21956D01*
X45134Y22029D01*
X45076Y22189D01*
X45025Y22379D01*
X44989Y22583D01*
X44981Y22693D01*
X44974Y22809D01*
Y22816D01*
Y22846D01*
X44981Y22897D01*
Y22955D01*
X44996Y23028D01*
X45003Y23115D01*
X45025Y23210D01*
X45047Y23319D01*
X45076Y23429D01*
X45120Y23545D01*
X45164Y23662D01*
X45222Y23779D01*
X45288Y23903D01*
X45368Y24019D01*
X45463Y24129D01*
X45565Y24238D01*
X45572Y24245D01*
X45594Y24260D01*
X45623Y24289D01*
X45674Y24325D01*
X45732Y24369D01*
X45805Y24413D01*
X45885Y24464D01*
X45980Y24515D01*
X46090Y24566D01*
X46206Y24617D01*
X46330Y24661D01*
X46468Y24704D01*
X46622Y24741D01*
X46782Y24770D01*
X46950Y24785D01*
X47125Y24792D01*
X47219D01*
X47285Y24785D01*
D02*
G37*
G36*
X53255Y23524D02*
X54480D01*
Y23020D01*
X53255D01*
Y21402D01*
Y21388D01*
Y21358D01*
Y21307D01*
Y21242D01*
Y21176D01*
Y21103D01*
X53263Y21030D01*
Y20965D01*
Y20957D01*
X53270Y20936D01*
Y20906D01*
X53277Y20870D01*
X53307Y20775D01*
X53350Y20673D01*
Y20666D01*
X53365Y20651D01*
X53401Y20607D01*
X53460Y20542D01*
X53540Y20491D01*
X53547D01*
X53562Y20484D01*
X53591Y20476D01*
X53635Y20462D01*
X53686Y20454D01*
X53751Y20440D01*
X53824Y20433D01*
X53970D01*
X54006Y20440D01*
X54050D01*
X54101Y20454D01*
X54218Y20476D01*
X54225D01*
X54247Y20484D01*
X54269Y20491D01*
X54305Y20505D01*
X54378Y20527D01*
X54415Y20535D01*
X54444Y20549D01*
X54480D01*
Y20010D01*
X54473D01*
X54451Y20003D01*
X54415Y19995D01*
X54371Y19988D01*
X54313Y19981D01*
X54254Y19966D01*
X54109Y19944D01*
X54101D01*
X54072Y19937D01*
X54036D01*
X53992Y19930D01*
X53875Y19922D01*
X53759Y19915D01*
X53707D01*
X53671Y19922D01*
X53627D01*
X53576Y19930D01*
X53452Y19951D01*
X53321Y19988D01*
X53183Y20032D01*
X53051Y20105D01*
X52935Y20199D01*
X52920Y20214D01*
X52891Y20258D01*
X52869Y20287D01*
X52847Y20323D01*
X52825Y20374D01*
X52796Y20425D01*
X52767Y20491D01*
X52745Y20557D01*
X52723Y20637D01*
X52701Y20717D01*
X52687Y20812D01*
X52672Y20914D01*
X52658Y21023D01*
Y21140D01*
Y23020D01*
X52257D01*
Y23524D01*
X52658D01*
Y24537D01*
X53255D01*
Y23524D01*
D02*
G37*
G36*
X56704Y23611D02*
X56769Y23604D01*
X56842Y23589D01*
X56922Y23575D01*
X57010Y23553D01*
X57097Y23531D01*
X57199Y23494D01*
X57294Y23458D01*
X57396Y23407D01*
X57491Y23349D01*
X57593Y23283D01*
X57681Y23203D01*
X57768Y23115D01*
X57775Y23108D01*
X57790Y23093D01*
X57812Y23064D01*
X57841Y23020D01*
X57870Y22970D01*
X57907Y22911D01*
X57950Y22838D01*
X57994Y22758D01*
X58030Y22663D01*
X58074Y22561D01*
X58111Y22452D01*
X58147Y22328D01*
X58169Y22197D01*
X58191Y22058D01*
X58205Y21912D01*
X58213Y21752D01*
Y21745D01*
Y21716D01*
Y21672D01*
X58205Y21606D01*
X58198Y21533D01*
X58191Y21453D01*
X58176Y21358D01*
X58154Y21256D01*
X58103Y21038D01*
X58067Y20928D01*
X58023Y20812D01*
X57972Y20702D01*
X57914Y20593D01*
X57848Y20484D01*
X57768Y20389D01*
X57761Y20381D01*
X57746Y20367D01*
X57724Y20345D01*
X57688Y20309D01*
X57644Y20272D01*
X57586Y20236D01*
X57528Y20185D01*
X57455Y20141D01*
X57374Y20097D01*
X57280Y20053D01*
X57185Y20010D01*
X57083Y19973D01*
X56966Y19937D01*
X56842Y19915D01*
X56718Y19900D01*
X56580Y19893D01*
X56507D01*
X56456Y19900D01*
X56390Y19908D01*
X56317Y19922D01*
X56237Y19937D01*
X56150Y19959D01*
X55960Y20017D01*
X55858Y20053D01*
X55756Y20105D01*
X55661Y20163D01*
X55567Y20229D01*
X55472Y20301D01*
X55384Y20389D01*
X55377Y20396D01*
X55362Y20411D01*
X55340Y20440D01*
X55319Y20484D01*
X55282Y20527D01*
X55246Y20593D01*
X55209Y20666D01*
X55165Y20746D01*
X55122Y20841D01*
X55085Y20943D01*
X55049Y21052D01*
X55012Y21176D01*
X54991Y21307D01*
X54969Y21446D01*
X54954Y21592D01*
X54947Y21752D01*
Y21759D01*
Y21789D01*
Y21832D01*
X54954Y21898D01*
X54961Y21971D01*
X54969Y22051D01*
X54983Y22146D01*
X55005Y22248D01*
X55056Y22467D01*
X55093Y22576D01*
X55129Y22693D01*
X55180Y22802D01*
X55238Y22911D01*
X55304Y23020D01*
X55384Y23115D01*
X55392Y23123D01*
X55406Y23137D01*
X55428Y23159D01*
X55464Y23196D01*
X55508Y23232D01*
X55567Y23276D01*
X55625Y23319D01*
X55698Y23370D01*
X55785Y23414D01*
X55873Y23458D01*
X55967Y23502D01*
X56077Y23538D01*
X56193Y23575D01*
X56310Y23596D01*
X56441Y23611D01*
X56580Y23618D01*
X56653D01*
X56704Y23611D01*
D02*
G37*
%LPC*%
G36*
X56667Y23101D02*
X56536D01*
X56500Y23093D01*
X56456D01*
X56412Y23086D01*
X56303Y23057D01*
X56179Y23020D01*
X56055Y22962D01*
X55931Y22875D01*
X55873Y22824D01*
X55822Y22765D01*
Y22758D01*
X55807Y22751D01*
X55800Y22729D01*
X55778Y22700D01*
X55763Y22671D01*
X55741Y22627D01*
X55712Y22576D01*
X55690Y22510D01*
X55668Y22445D01*
X55639Y22372D01*
X55617Y22284D01*
X55603Y22197D01*
X55581Y22095D01*
X55574Y21993D01*
X55559Y21876D01*
Y21752D01*
Y21745D01*
Y21723D01*
Y21686D01*
X55567Y21643D01*
Y21584D01*
X55574Y21526D01*
X55596Y21380D01*
X55625Y21213D01*
X55676Y21045D01*
X55741Y20885D01*
X55785Y20812D01*
X55829Y20746D01*
X55844Y20731D01*
X55880Y20695D01*
X55938Y20637D01*
X56026Y20578D01*
X56128Y20520D01*
X56259Y20462D01*
X56412Y20425D01*
X56492Y20418D01*
X56580Y20411D01*
X56624D01*
X56660Y20418D01*
X56748Y20425D01*
X56849Y20454D01*
X56966Y20491D01*
X57090Y20549D01*
X57214Y20637D01*
X57272Y20688D01*
X57323Y20746D01*
Y20753D01*
X57338Y20761D01*
X57353Y20783D01*
X57367Y20812D01*
X57389Y20848D01*
X57411Y20885D01*
X57433Y20936D01*
X57462Y21001D01*
X57491Y21067D01*
X57513Y21140D01*
X57535Y21220D01*
X57557Y21315D01*
X57578Y21409D01*
X57586Y21519D01*
X57600Y21628D01*
Y21752D01*
Y21759D01*
Y21781D01*
Y21818D01*
X57593Y21861D01*
Y21920D01*
X57586Y21985D01*
X57564Y22131D01*
X57535Y22299D01*
X57484Y22467D01*
X57418Y22627D01*
X57374Y22700D01*
X57323Y22765D01*
Y22773D01*
X57309Y22780D01*
X57272Y22816D01*
X57214Y22875D01*
X57126Y22933D01*
X57025Y22991D01*
X56893Y23050D01*
X56748Y23086D01*
X56667Y23101D01*
D02*
G37*
%LPD*%
D10*
X73622Y6693D02*
G03*
X73622Y6693I-3150J0D01*
G01*
X32677D02*
G03*
X32677Y6693I-3150J0D01*
G01*
D11*
X32776Y22638D02*
Y26969D01*
Y15551D02*
Y19094D01*
X31988Y14764D02*
X32776Y15551D01*
X31496Y14272D02*
X32185Y14961D01*
X28740Y14272D02*
X31496D01*
X27461Y26969D02*
X32776D01*
X27461Y22638D02*
Y26969D01*
X28248Y14764D02*
X31988D01*
X27461Y15551D02*
Y19094D01*
X28150Y14862D02*
X28740Y14272D01*
X27461Y15551D02*
X28248Y14764D01*
X37230Y20365D02*
Y21565D01*
X34030Y20365D02*
Y21565D01*
D12*
X70472Y5118D02*
Y8268D01*
X68898Y6693D02*
X72047D01*
X27953D02*
X31102D01*
D13*
X28741Y29004D02*
X31889D01*
Y31103D01*
X28741Y34252D02*
Y32153D01*
X31889D01*
Y34252D01*
X30315Y32153D02*
Y33202D01*
X28741Y35302D02*
X31889D01*
Y36876D01*
X31365Y37401D01*
X29265D01*
X28741Y36876D01*
Y35302D01*
X31889Y38450D02*
Y39500D01*
Y38975D01*
X28741D01*
X29265Y38450D01*
X37007Y29003D02*
X33859D01*
Y30578D01*
X34383Y31102D01*
X35433D01*
X35958Y30578D01*
Y29003D01*
Y30053D02*
X37007Y31102D01*
Y32152D02*
Y33201D01*
Y32677D01*
X33859D01*
X34383Y32152D01*
M02*
