G04*
G04 #@! TF.GenerationSoftware,Altium Limited,Altium Designer,21.9.2 (33)*
G04*
G04 Layer_Physical_Order=4*
G04 Layer_Color=16711680*
%FSLAX25Y25*%
%MOIN*%
G70*
G04*
G04 #@! TF.SameCoordinates,E2E37F34-45BF-43D2-A38E-C68E023C1027*
G04*
G04*
G04 #@! TF.FilePolarity,Positive*
G04*
G01*
G75*
G04:AMPARAMS|DCode=17|XSize=39.37mil|YSize=35.43mil|CornerRadius=4.43mil|HoleSize=0mil|Usage=FLASHONLY|Rotation=180.000|XOffset=0mil|YOffset=0mil|HoleType=Round|Shape=RoundedRectangle|*
%AMROUNDEDRECTD17*
21,1,0.03937,0.02657,0,0,180.0*
21,1,0.03051,0.03543,0,0,180.0*
1,1,0.00886,-0.01526,0.01329*
1,1,0.00886,0.01526,0.01329*
1,1,0.00886,0.01526,-0.01329*
1,1,0.00886,-0.01526,-0.01329*
%
%ADD17ROUNDEDRECTD17*%
G04:AMPARAMS|DCode=27|XSize=236.22mil|YSize=236.22mil|CornerRadius=11.81mil|HoleSize=0mil|Usage=FLASHONLY|Rotation=180.000|XOffset=0mil|YOffset=0mil|HoleType=Round|Shape=RoundedRectangle|*
%AMROUNDEDRECTD27*
21,1,0.23622,0.21260,0,0,180.0*
21,1,0.21260,0.23622,0,0,180.0*
1,1,0.02362,-0.10630,0.10630*
1,1,0.02362,0.10630,0.10630*
1,1,0.02362,0.10630,-0.10630*
1,1,0.02362,-0.10630,-0.10630*
%
%ADD27ROUNDEDRECTD27*%
%ADD28C,0.07087*%
%ADD29C,0.01772*%
%ADD30C,0.02362*%
%ADD31C,0.02362*%
G04:AMPARAMS|DCode=32|XSize=51.18mil|YSize=31.5mil|CornerRadius=3.94mil|HoleSize=0mil|Usage=FLASHONLY|Rotation=90.000|XOffset=0mil|YOffset=0mil|HoleType=Round|Shape=RoundedRectangle|*
%AMROUNDEDRECTD32*
21,1,0.05118,0.02362,0,0,90.0*
21,1,0.04331,0.03150,0,0,90.0*
1,1,0.00787,0.01181,0.02165*
1,1,0.00787,0.01181,-0.02165*
1,1,0.00787,-0.01181,-0.02165*
1,1,0.00787,-0.01181,0.02165*
%
%ADD32ROUNDEDRECTD32*%
%ADD33R,0.03543X0.01968*%
%ADD34R,0.03937X0.02362*%
%ADD35C,0.03150*%
%ADD36C,0.03543*%
D17*
X50787Y27756D02*
D03*
Y21063D02*
D03*
X45276Y27756D02*
D03*
Y21063D02*
D03*
X72441Y24213D02*
D03*
Y17520D02*
D03*
Y35630D02*
D03*
Y28937D02*
D03*
D27*
X12598Y40157D02*
D03*
X87402D02*
D03*
X12598Y12598D02*
D03*
X87402Y12598D02*
D03*
D28*
X50000Y34252D02*
D03*
X69685Y48425D02*
D03*
X30315D02*
D03*
D29*
X47146Y21925D02*
D03*
X72441Y28937D02*
D03*
X51181Y42126D02*
D03*
X55709Y11614D02*
D03*
X64370Y10492D02*
D03*
Y2894D02*
D03*
X35630D02*
D03*
Y10492D02*
D03*
X45276Y27756D02*
D03*
X30118Y17520D02*
D03*
X72441Y24213D02*
D03*
X67224Y26378D02*
D03*
D30*
X54434Y17177D02*
D03*
D31*
X55110Y16643D02*
G03*
X55804Y16535I704J2255D01*
G01*
X55857D02*
G03*
X55859Y16535I10J2362D01*
G01*
X60096Y27997D02*
G03*
X60335Y28937I-1730J939D01*
G01*
Y31299D02*
G03*
X60246Y31883I-1969J0D01*
G01*
X50787Y27756D02*
X51575Y28346D01*
X55610Y30118D02*
X56398D01*
X51575Y28346D02*
X55610Y30118D01*
X56398Y22638D02*
X57185D01*
X59055Y35827D02*
Y40748D01*
X60335Y28937D02*
Y31299D01*
X50787Y21063D02*
X51575Y20472D01*
X54823Y16732D02*
X55110Y16643D01*
X55804Y16535D02*
X55857D01*
X55859D02*
X59842D01*
X51575Y20472D02*
X54434Y17177D01*
X54434Y17177D02*
X54823Y16732D01*
X59449Y34449D02*
X60246Y31883D01*
X59055Y35827D02*
X59449Y34449D01*
X57185Y22638D02*
X60096Y27997D01*
X59055Y40748D02*
X59055Y42126D01*
D32*
X66929Y35827D02*
D03*
X59055D02*
D03*
X59055Y42126D02*
D03*
X51181D02*
D03*
X67716Y16535D02*
D03*
X59842D02*
D03*
D33*
X54823Y16732D02*
D03*
Y11614D02*
D03*
X45965Y14173D02*
D03*
D34*
X67224Y26378D02*
D03*
Y30118D02*
D03*
Y22638D02*
D03*
X56398Y30118D02*
D03*
Y22638D02*
D03*
D35*
X67716Y21977D02*
X67716Y16535D01*
X73228Y35827D02*
X77165D01*
X72835Y35630D02*
X73228Y35827D01*
X77165D02*
X87402Y40157D01*
X67323Y35630D02*
X72835Y35630D01*
X66929Y31099D02*
Y35827D01*
D36*
X68799Y17323D02*
X72835Y17323D01*
X73032Y17323D02*
X77362D01*
X72835Y17323D02*
X73032Y17323D01*
X77362D02*
X87402Y12598D01*
X45276Y27756D02*
Y27756D01*
X50591Y27756D02*
X50787Y27756D01*
X45276Y27756D02*
X50591D01*
M02*
