M48
;Layer_Color=9474304
;FILE_FORMAT=2:5
INCH,LZ
;TYPE=PLATED
T1F00S00C0.00787
T2F00S00C0.04331
T3F00S00C0.18898
T4F00S00C0.19685
;TYPE=NON_PLATED
T5F00S00C0.03543
%
T01
X003563Y0002894
Y0010492
X0030118Y001752
X0047146Y0021925
X0045276Y0027756
X0051181Y0042126
X0067224Y0026378
X0072441Y0024213
Y0028937
X006437Y0010492
Y0002894
X0055709Y0011614
T02
X0030315Y0048425
X005Y0034252
X0069685Y0048425
T03
X0012598Y0040157
X0087402
T04
X0012598Y0012598
X0087402Y0012598
T05
X0044094Y0006693
X0055905
M30
